{"title":"A.Bridge.Too.Far.1977.BRRip.Xvid.AC3-SiC","uid":6596535,"size":1932265483,"categoryP":"video","categoryS":"movies","magnet":"?xt=urn:btih:872b5974648d928de11770d7cc71b49150aa5845&amp;dn=A.Bridge.Too.Far.1977.BRRip.Xvid.AC3-SiC&amp;tr=udp%3A%2F%2Ftracker.openbittorrent.com%3A80&amp;tr=udp%3A%2F%2Fopen.demonii.com%3A1337&amp;tr=udp%3A%2F%2Ftracker.coppersurfer.tk%3A6969&amp;tr=udp%3A%2F%2Fexodus.desync.com%3A6969","seeders":0,"leechers":1,"uploader":"TvTeam","files":5,"time":1313045488,"description":". \n  &lt;a href=&quot;\nhttp://www.torrenting.com/&quot; rel=&quot;nofollow&quot; target=&quot;_NEW&quot;&gt;\nhttp://www.torrenting.com/&lt;/a&gt;        :     Greatest Movie Tracker on The Net!!!\n &lt;a href=&quot;\nhttp://www.Torrenting.com&quot; rel=&quot;nofollow&quot; target=&quot;_NEW&quot;&gt;\nhttp://www.Torrenting.com&lt;/a&gt;          :     Once &amp; For all ;)\n\n\n               www . Torrenting . Com \n\n(((((((((((((= Enjoy No RAR releases =))))))))))))))))))))\n\n\n...................................NFO:....................................\n\n.\n\n\n\n\n\n\n\n\n\n\n\n\n\n\n\n\n\n\n\n\n\n\n\n\n\n\n\n\n\n\n\n\n\n\n\n\n\n\n\n\n          \n          \n              \n              \n                    \n                    \n                    \n                    \n\nA.Bridge.Too.Far.1977.BRRip.Xvid.AC3-SiC\n\nPoster:\n[img]http://leetleech.org/images/13025512473036664758.jpg[/img]\n\nIMDB Link:\nhttp://www.imdb.com/title/tt0075784/\n\nDescription:\nAn historic telling of the failed attempt to capture several bridges to Germany\nin World War II in a campaign called Operation Market-Garden. \n\nMediaInfo:\nGeneral\nComplete name                    : A.Bridge.Too.Far.1977.BRRip.Xvid.AC3-SiC.avi\nFormat                           : AVI\nFormat/Info                      : Audio Video Interleave\nFile size                        : 1.79 GiB\nDuration                         : 2h 56mn\nOverall bit rate                 : 1 454 Kbps\n\nVideo\nID                               : 0\nFormat                           : MPEG-4 Visual\nFormat profile                   : Advanced Simple@L5\nFormat settings, BVOP            : Yes\nFormat settings, QPel            : No\nFormat settings, GMC             : No warppoints\nFormat settings, Matrix          : Default (H.263)\nMuxing mode                      : Packed bitstream\nCodec ID                         : XVID\nCodec ID/Hint                    : XviD\nDuration                         : 2h 56mn\nBit rate                         : 1 062 Kbps\nWidth                            : 720 pixels\nHeight                           : 304 pixels\nDisplay aspect ratio             : 2.35:1\nFrame rate                       : 23.976 fps\nResolution                       : 8 bits\nColorimetry                      : 4:2:0\nScan type                        : Progressive\nBits/(Pixel*Frame)               : 0.202\nStream size                      : 1.31 GiB (73%)\nWriting library                  : XviD 64\n\nAudio\nID                               : 1\nFormat                           : AC-3\nFormat/Info                      : Audio Coding 3\nFormat_Settings_ModeExtension    : CM (complete main)\nCodec ID                         : 2000\nDuration                         : 2h 56mn\nBit rate mode                    : Constant\nBit rate                         : 384 Kbps\nChannel(s)                       : 6 channels\nChannel positions                : Front: L C R, Side: L R, LFE\nSampling rate                    : 48.0 KHz\nStream size                      : 484 MiB (26%)\nAlignment                        : Aligned on interleaves\nInterleave, duration             : 64 ms (1.53 video frames)\nInterleave, preload duration     : 192 ms\nTitle                            : 6ch English\n\nScreenshots:\n[img]http://leetleech.org/images/15308688664630896059.png[/img]\n[img]http://leetleech.org/images/35847064553557863198.png[/img]\n[img]http://leetleech.org/images/40365587615179013717.png[/img]\n[img]http://leetleech.org/images/46810146675346092212.png[/img]\n[img]http://leetleech.org/images/67328145024110898913.png[/img]\n\nNote :   N/A \n\nSource : BluRay-CtrlHD Thanks!\n\nEncoder: Bezauk\n\nEnjoy!\n\nRespects to CaptainHomey, Cyanide, CM8, Rx, THC, ELEKTRI4KA, \nKillerhz, PA, YeFsTe, BoxSlots, MrRep and everyone in the struggle...","torrent":{"xt":"urn:btih:872b5974648d928de11770d7cc71b49150aa5845","amp;dn":"A.Bridge.Too.Far.1977.BRRip.Xvid.AC3-SiC","amp;tr":["udp%3A%2F%2Ftracker.openbittorrent.com%3A80","udp%3A%2F%2Fopen.demonii.com%3A1337","udp%3A%2F%2Ftracker.coppersurfer.tk%3A6969","udp%3A%2F%2Fexodus.desync.com%3A6969"],"infoHash":"872b5974648d928de11770d7cc71b49150aa5845","infoHashBuffer":{"type":"Buffer","data":[135,43,89,116,100,141,146,141,225,23,112,215,204,113,180,145,80,170,88,69]},"announce":[],"urlList":[]}}